#define arc_width 24
#define arc_height 24
static char arc_bits[] = {
   0x00, 0x00, 0x00, 0x00, 0x00, 0x10, 0x00, 0x00, 0x38, 0x00, 0x80, 0x6f,
   0x00, 0x70, 0x38, 0x00, 0x0c, 0x10, 0xc0, 0x03, 0x00, 0x40, 0x02, 0x10,
   0x40, 0x02, 0x18, 0xc0, 0x03, 0x10, 0x20, 0x18, 0x10, 0x20, 0x24, 0x38,
   0x10, 0x20, 0x00, 0x10, 0x18, 0x00, 0x10, 0x04, 0x00, 0x08, 0x3c, 0x00,
   0x08, 0x00, 0x00, 0x08, 0x03, 0x00, 0x88, 0x04, 0x00, 0x1c, 0x04, 0x00,
   0x36, 0x02, 0x00, 0x1c, 0x04, 0x00, 0x88, 0x04, 0x00, 0x00, 0x03, 0x00};
