#define cross_cursor_width 12
#define cross_cursor_height 12
static char cross_cursor_bits[] = {
   0x00, 0x00, 0x00, 0x00, 0x20, 0x00, 0x20, 0x00, 0x20, 0x00, 0xfc, 0x01,
   0x20, 0x00, 0x20, 0x00, 0x20, 0x00, 0x00, 0x00, 0x00, 0x00, 0x00, 0x00};
