#define delete_width 24
#define delete_height 24
static char delete_bits[] = {
   0x00, 0x00, 0x00, 0x00, 0x00, 0x00, 0x00, 0x18, 0x00, 0xf0, 0xff, 0x0f,
   0xfc, 0xff, 0x3f, 0x04, 0x00, 0x20, 0xf0, 0xff, 0x0f, 0xd0, 0xdd, 0x0d,
   0xb0, 0xbb, 0x0b, 0xb0, 0xbb, 0x0b, 0xb0, 0xbb, 0x0b, 0xb0, 0xbb, 0x0b,
   0xb0, 0xbb, 0x0b, 0xb0, 0xbb, 0x0b, 0xb0, 0xbb, 0x0b, 0xb0, 0xbb, 0x0b,
   0xb0, 0xbb, 0x0b, 0xb0, 0xbb, 0x0b, 0xb0, 0xbb, 0x0b, 0xb0, 0xbb, 0x0b,
   0xf0, 0xff, 0x0f, 0xe0, 0xff, 0x07, 0x00, 0x00, 0x00, 0x00, 0x00, 0x00};
