#define fill_off_width 12
#define fill_off_height 12
static char fill_off_bits[] = {
   0xff, 0x0f, 0x01, 0x08, 0x01, 0x08, 0x01, 0x08, 0x01, 0x08, 0x01, 0x08,
   0x01, 0x08, 0x01, 0x08, 0x01, 0x08, 0x01, 0x08, 0x01, 0x08, 0xff, 0x0f};
