#define fill_on_width 12
#define fill_on_height 12
static char fill_on_bits[] = {
   0xff, 0x0f, 0x25, 0x09, 0x93, 0x0c, 0x49, 0x0a, 0x25, 0x09, 0x93, 0x0c,
   0x49, 0x0a, 0x25, 0x09, 0x93, 0x0c, 0x49, 0x0a, 0x25, 0x09, 0xff, 0x0f};
