#define full_cursor_width 12
#define full_cursor_height 12
static char full_cursor_bits[] = {
   0xff, 0x07, 0x21, 0x04, 0x21, 0x04, 0x21, 0x04, 0x21, 0x04, 0xff, 0x07,
   0x21, 0x04, 0x21, 0x04, 0x21, 0x04, 0x21, 0x04, 0xff, 0x07, 0x00, 0x00};
