#define group_width 24
#define group_height 24
static char group_bits[] = {
   0x07, 0x00, 0xe0, 0xff, 0xff, 0xff, 0x07, 0x00, 0xe0, 0x02, 0x00, 0x40,
   0x02, 0x00, 0x50, 0x82, 0x00, 0x48, 0x42, 0x01, 0x44, 0x22, 0x02, 0x42,
   0x12, 0x04, 0x43, 0xfa, 0x8f, 0x44, 0x02, 0x40, 0x48, 0x02, 0x60, 0x48,
   0xe2, 0x9f, 0x44, 0x22, 0x08, 0x43, 0x22, 0x0c, 0x40, 0x22, 0x0a, 0x40,
   0x22, 0x08, 0x40, 0xe2, 0x0f, 0x40, 0x02, 0x00, 0x40, 0x02, 0x00, 0x40,
   0x02, 0x00, 0x40, 0x07, 0x00, 0xe0, 0xff, 0xff, 0xff, 0x07, 0x00, 0xe0};
