#define line_width 24
#define line_height 24
static char line_bits[] = {
   0x00, 0x00, 0x00, 0x00, 0x00, 0x00, 0x00, 0x01, 0x10, 0x80, 0x02, 0x08,
   0x40, 0x04, 0x04, 0x20, 0x08, 0x02, 0x10, 0x10, 0x01, 0x08, 0xa0, 0x00,
   0x04, 0x40, 0x00, 0x18, 0x00, 0x00, 0x60, 0x00, 0x00, 0x80, 0x01, 0x00,
   0x00, 0x06, 0x00, 0x00, 0x18, 0x00, 0x00, 0x60, 0x00, 0x00, 0x80, 0x01,
   0x00, 0x00, 0x06, 0x00, 0x00, 0x18, 0xf8, 0xff, 0x07, 0x00, 0x00, 0x00,
   0x00, 0x00, 0x00, 0x00, 0x00, 0x00, 0x00, 0x00, 0x00, 0x00, 0x00, 0x00};
