#define lmbarrow_width 24
#define lmbarrow_height 12
static char lmbarrow_bits[] = {
   0x00, 0x00, 0x00, 0x00, 0x00, 0x00, 0x00, 0xc3, 0x00, 0xc0, 0xc3, 0x03,
   0xf0, 0xc3, 0x0f, 0xfc, 0xff, 0x3f, 0xfc, 0xff, 0x3f, 0xf0, 0xc3, 0x0f,
   0xc0, 0xc3, 0x03, 0x00, 0xc3, 0x00, 0x00, 0x00, 0x00, 0x00, 0x00, 0x00};
