#define lmfarrow_width 24
#define lmfarrow_height 12
static char lmfarrow_bits[] = {
   0x00, 0x00, 0x00, 0x00, 0x00, 0x00, 0x00, 0xc0, 0x00, 0x00, 0xc0, 0x03,
   0x00, 0xc0, 0x0f, 0xfc, 0xff, 0x3f, 0xfc, 0xff, 0x3f, 0x00, 0xc0, 0x0f,
   0x00, 0xc0, 0x03, 0x00, 0xc0, 0x00, 0x00, 0x00, 0x00, 0x00, 0x00, 0x00};
