#define lmmmassoc_width 24
#define lmmmassoc_height 12
static char lmmmassoc_bits[] = {
   0x00, 0x00, 0x00, 0x00, 0x00, 0x00, 0x00, 0x00, 0x00, 0x38, 0x00, 0x1c,
   0x7c, 0x00, 0x3e, 0xfc, 0xff, 0x3f, 0xfc, 0xff, 0x3f, 0x7c, 0x00, 0x3e,
   0x38, 0x00, 0x1c, 0x00, 0x00, 0x00, 0x00, 0x00, 0x00, 0x00, 0x00, 0x00};
