#define lmomassoc_width 24
#define lmomassoc_height 12
static char lmomassoc_bits[] = {
   0x00, 0x00, 0x00, 0x00, 0x00, 0x00, 0x00, 0x00, 0x00, 0x00, 0x00, 0x1c,
   0x00, 0x00, 0x3e, 0xfc, 0xff, 0x3f, 0xfc, 0xff, 0x3f, 0x00, 0x00, 0x3e,
   0x00, 0x00, 0x1c, 0x00, 0x00, 0x00, 0x00, 0x00, 0x00, 0x00, 0x00, 0x00};
