#define lmrarrow_width 24
#define lmrarrow_height 12
static char lmrarrow_bits[] = {
   0x00, 0x00, 0x00, 0x00, 0x00, 0x00, 0x00, 0x03, 0x00, 0xc0, 0x03, 0x00,
   0xf0, 0x03, 0x00, 0xfc, 0xff, 0x3f, 0xfc, 0xff, 0x3f, 0xf0, 0x03, 0x00,
   0xc0, 0x03, 0x00, 0x00, 0x03, 0x00, 0x00, 0x00, 0x00, 0x00, 0x00, 0x00};
