#define magnet_on_width 12
#define magnet_on_height 12
static char magnet_on_bits[] = {
   0x00, 0x00, 0x28, 0x0a, 0x14, 0x05, 0x00, 0x00, 0x06, 0x06, 0x06, 0x06,
   0x06, 0x06, 0x06, 0x06, 0x0e, 0x07, 0xfc, 0x03, 0xf8, 0x01, 0x00, 0x00};
