#define magnet_off_width 12
#define magnet_off_height 12
static char magnet_off_bits[] = {
   0x00, 0x00, 0x00, 0x00, 0x00, 0x00, 0x00, 0x00, 0x06, 0x06, 0x06, 0x06,
   0x06, 0x06, 0x06, 0x06, 0x0e, 0x07, 0xfc, 0x03, 0xf8, 0x01, 0x00, 0x00};
