#define move_width 24
#define move_height 24
static char move_bits[] = {
   0x00, 0x00, 0x00, 0x00, 0x00, 0x00, 0xfc, 0x07, 0x00, 0x04, 0x04, 0x00,
   0x04, 0x04, 0x00, 0x04, 0x04, 0x00, 0x04, 0x24, 0x00, 0x04, 0x74, 0x00,
   0x04, 0xe4, 0x02, 0x04, 0xc4, 0x03, 0xfc, 0x87, 0x03, 0x00, 0xc0, 0x03,
   0x00, 0x00, 0x00, 0x00, 0xa0, 0x2a, 0x00, 0x00, 0x00, 0x00, 0x20, 0x20,
   0x00, 0x00, 0x00, 0x00, 0x20, 0x20, 0x00, 0x00, 0x00, 0x00, 0x20, 0x20,
   0x00, 0x00, 0x00, 0x00, 0xa0, 0x2a, 0x00, 0x00, 0x00, 0x00, 0x00, 0x00};
