#define oval_width 24
#define oval_height 24
static char oval_bits[] = {
   0x00, 0x00, 0x00, 0x00, 0x00, 0x00, 0x00, 0x00, 0x00, 0x00, 0x0f, 0x00,
   0xc0, 0x30, 0x00, 0x20, 0x40, 0x00, 0x10, 0x80, 0x00, 0x10, 0xf0, 0x00,
   0x08, 0x0c, 0x03, 0x08, 0x02, 0x05, 0x08, 0x01, 0x09, 0x08, 0x01, 0x09,
   0x90, 0x80, 0x10, 0x90, 0x80, 0x10, 0xa0, 0x40, 0x10, 0xc0, 0x30, 0x10,
   0x00, 0x0f, 0x08, 0x00, 0x01, 0x08, 0x00, 0x02, 0x04, 0x00, 0x0c, 0x03,
   0x00, 0xf0, 0x00, 0x00, 0x00, 0x00, 0x00, 0x00, 0x00, 0x00, 0x00, 0x00};
