#define rectangle_width 24
#define rectangle_height 24
static char rectangle_bits[] = {
   0x00, 0x00, 0x00, 0x00, 0x00, 0x00, 0xfc, 0xff, 0x01, 0x04, 0x00, 0x01,
   0x04, 0x00, 0x01, 0x04, 0x00, 0x01, 0x04, 0x00, 0x01, 0x04, 0x00, 0x01,
   0x04, 0x00, 0x01, 0x04, 0xfe, 0x7f, 0x04, 0x02, 0x41, 0x04, 0x02, 0x41,
   0x04, 0x02, 0x41, 0x04, 0x02, 0x41, 0x04, 0x02, 0x41, 0x04, 0x02, 0x41,
   0x04, 0x02, 0x41, 0xfc, 0xff, 0x41, 0x00, 0x02, 0x40, 0x00, 0x02, 0x40,
   0x00, 0x02, 0x40, 0x00, 0x02, 0x40, 0x00, 0xfe, 0x7f, 0x00, 0x00, 0x00};
