#define resize_width 24
#define resize_height 24
static char resize_bits[] = {
   0x00, 0x00, 0x00, 0x00, 0x00, 0x00, 0x00, 0x00, 0x00, 0x00, 0x00, 0x00,
   0x00, 0x38, 0x00, 0x00, 0x38, 0x00, 0x00, 0x38, 0x00, 0x00, 0x44, 0x00,
   0x00, 0x10, 0x00, 0x00, 0x39, 0x01, 0x00, 0x7c, 0x00, 0x40, 0x10, 0x04,
   0x00, 0x10, 0x00, 0x10, 0x10, 0x10, 0x00, 0x00, 0x00, 0x04, 0x38, 0x40,
   0xfe, 0xff, 0x7f, 0x00, 0x38, 0x00, 0x00, 0x00, 0x00, 0x00, 0x00, 0x00,
   0x00, 0x00, 0x00, 0x00, 0x00, 0x00, 0x00, 0x00, 0x00, 0x00, 0x00, 0x00};
