#define reversy_width 24
#define reversy_height 24
static char reversy_bits[] = {
   0x00, 0x00, 0x00, 0x00, 0x00, 0x00, 0x00, 0x18, 0x00, 0x00, 0x3c, 0x00,
   0x00, 0x7e, 0x00, 0x00, 0xff, 0x00, 0x80, 0xff, 0x01, 0x00, 0x7e, 0x00,
   0x00, 0x7e, 0x00, 0x00, 0x7e, 0x00, 0x00, 0x66, 0x00, 0x00, 0x42, 0x00,
   0x00, 0x42, 0x00, 0x00, 0x66, 0x00, 0x00, 0x7e, 0x00, 0x00, 0x7e, 0x00,
   0x00, 0x7e, 0x00, 0x80, 0xff, 0x01, 0x00, 0xff, 0x00, 0x00, 0x7e, 0x00,
   0x00, 0x3c, 0x00, 0x00, 0x18, 0x00, 0x00, 0x00, 0x00, 0x00, 0x00, 0x00};
