#define reversx_width 24
#define reversx_height 24
static char reversx_bits[] = {
   0x00, 0x00, 0x00, 0x00, 0x00, 0x00, 0x00, 0x00, 0x00, 0x00, 0x00, 0x00,
   0x00, 0x00, 0x00, 0x00, 0x00, 0x00, 0x00, 0x00, 0x00, 0x40, 0x00, 0x02,
   0x60, 0x00, 0x06, 0xf0, 0xff, 0x0f, 0xf8, 0xe7, 0x1f, 0xfc, 0xc3, 0x3f,
   0xfc, 0xc3, 0x3f, 0xf8, 0xe7, 0x1f, 0xf0, 0xff, 0x0f, 0x60, 0x00, 0x06,
   0x40, 0x00, 0x02, 0x00, 0x00, 0x00, 0x00, 0x00, 0x00, 0x00, 0x00, 0x00,
   0x00, 0x00, 0x00, 0x00, 0x00, 0x00, 0x00, 0x00, 0x00, 0x00, 0x00, 0x00};
