#define rotate_width 24
#define rotate_height 24
static char rotate_bits[] = {
   0x00, 0x00, 0x00, 0x00, 0x00, 0x00, 0x00, 0xe0, 0x0f, 0x00, 0xe0, 0x07,
   0x80, 0xe0, 0x03, 0xc0, 0xe1, 0x03, 0xe0, 0xe1, 0x07, 0xf0, 0x60, 0x0f,
   0x70, 0x20, 0x0e, 0x78, 0x00, 0x1e, 0x38, 0x18, 0x1c, 0x38, 0x3c, 0x1c,
   0x38, 0x3c, 0x1c, 0x38, 0x18, 0x1c, 0x78, 0x00, 0x1e, 0x70, 0x00, 0x0e,
   0xf0, 0x00, 0x0f, 0xe0, 0xc3, 0x07, 0xc0, 0xff, 0x03, 0x80, 0xff, 0x01,
   0x00, 0x7e, 0x00, 0x00, 0x00, 0x00, 0x00, 0x00, 0x00, 0x00, 0x00, 0x00};
