#define rscapsule_width 12
#define rscapsule_height 12
static char rscapsule_bits[] = {
   0xf8, 0x01, 0x04, 0x02, 0xf2, 0x04, 0x09, 0x09, 0x05, 0x0a, 0x05, 0x0a,
   0xfd, 0x0b, 0x05, 0x0a, 0x05, 0x0a, 0x02, 0x04, 0x04, 0x02, 0xf8, 0x01};
