#define rsnone_width 12
#define rsnone_height 12
static char rsnone_bits[] = {
   0x00, 0x00, 0xf0, 0x00, 0x08, 0x01, 0x04, 0x02, 0x04, 0x02, 0x04, 0x02,
   0xfc, 0x03, 0x04, 0x02, 0x04, 0x02, 0x04, 0x02, 0x04, 0x02, 0x00, 0x00};
