#define rsrect_width 12
#define rsrect_height 12
static char rsrect_bits[] = {
   0xff, 0x0f, 0x01, 0x08, 0xf1, 0x08, 0x09, 0x09, 0x05, 0x0a, 0x05, 0x0a,
   0xfd, 0x0b, 0x05, 0x0a, 0x05, 0x0a, 0x05, 0x0a, 0x01, 0x08, 0xff, 0x0f};
