#define spline_width 24
#define spline_height 24
static char spline_bits[] = {
   0x00, 0x00, 0x1f, 0x00, 0x80, 0x27, 0x00, 0xc0, 0x7f, 0x00, 0xc6, 0x4f,
   0x00, 0xc9, 0x4f, 0x00, 0xc9, 0x4f, 0x00, 0xf1, 0x7f, 0x80, 0x80, 0x3f,
   0x7c, 0x00, 0x1f, 0x02, 0x00, 0x00, 0x02, 0x00, 0x00, 0xfc, 0xff, 0x01,
   0x00, 0x00, 0x06, 0x00, 0x00, 0x08, 0x00, 0x00, 0x08, 0x00, 0x00, 0x06,
   0xf0, 0xff, 0x01, 0x0e, 0x00, 0x00, 0x01, 0x00, 0x00, 0x01, 0x50, 0x00,
   0x0e, 0x20, 0x00, 0xf0, 0x9f, 0x00, 0x00, 0x20, 0x00, 0x00, 0x50, 0x00};
