#define string_width 24
#define string_height 24
static char string_bits[] = {
   0x00, 0x00, 0x00, 0x00, 0x00, 0x00, 0x00, 0x00, 0x00, 0x00, 0x00, 0x00,
   0x00, 0x00, 0x00, 0x00, 0x00, 0x00, 0x60, 0x3c, 0x0e, 0x90, 0x44, 0x11,
   0x08, 0x45, 0x01, 0x08, 0x45, 0x01, 0x08, 0x45, 0x01, 0x08, 0x3d, 0x01,
   0xf8, 0x45, 0x01, 0x08, 0x45, 0x01, 0x08, 0x45, 0x01, 0x08, 0x45, 0x11,
   0x08, 0x3d, 0x0e, 0x00, 0x00, 0x00, 0x00, 0x00, 0x00, 0x00, 0x00, 0x00,
   0x00, 0x00, 0x00, 0x00, 0x00, 0x00, 0x00, 0x00, 0x00, 0x00, 0x00, 0x00};
