#define ungroup_width 24
#define ungroup_height 24
static char ungroup_bits[] = {
   0x02, 0x00, 0x40, 0x65, 0x66, 0xa6, 0x02, 0x00, 0x40, 0x00, 0x00, 0x00,
   0x00, 0x00, 0x10, 0x82, 0x00, 0x48, 0x42, 0x01, 0x44, 0x20, 0x02, 0x02,
   0x10, 0x04, 0x03, 0xfa, 0x8f, 0x44, 0x02, 0x40, 0x48, 0x00, 0x60, 0x08,
   0xe0, 0x9f, 0x04, 0x22, 0x08, 0x43, 0x22, 0x0c, 0x40, 0x20, 0x0a, 0x00,
   0x20, 0x08, 0x00, 0xe2, 0x0f, 0x40, 0x02, 0x00, 0x40, 0x00, 0x00, 0x00,
   0x00, 0x00, 0x00, 0x02, 0x00, 0x40, 0x65, 0x66, 0xa6, 0x02, 0x00, 0x40};
