#define update_width 24
#define update_height 24
static char update_bits[] = {
   0x00, 0x00, 0x00, 0x00, 0x00, 0x00, 0x00, 0x00, 0x00, 0x00, 0x7e, 0x00,
   0x80, 0xff, 0x01, 0xc0, 0x7f, 0x03, 0xe8, 0xc3, 0x07, 0xf8, 0x00, 0x05,
   0x78, 0x00, 0x0a, 0x78, 0x00, 0x04, 0xf8, 0x00, 0x00, 0xf8, 0x01, 0x00,
   0x00, 0x80, 0x1f, 0x00, 0x00, 0x1f, 0x20, 0x00, 0x1e, 0x50, 0x00, 0x1e,
   0xa0, 0x00, 0x1f, 0xc0, 0xc3, 0x17, 0x40, 0xff, 0x03, 0x80, 0xff, 0x01,
   0x00, 0x7e, 0x00, 0x00, 0x00, 0x00, 0x00, 0x00, 0x00, 0x00, 0x00, 0x00};
