#define width_three_width 12
#define width_three_height 12
static char width_three_bits[] = {
   0x00, 0x00, 0x00, 0x00, 0x00, 0x00, 0x02, 0x04, 0xfe, 0x07, 0xfe, 0x07,
   0xfe, 0x07, 0x02, 0x04, 0x00, 0x00, 0x00, 0x00, 0x00, 0x00, 0x00, 0x00};
