#define width_two_width 12
#define width_two_height 12
static char width_two_bits[] = {
   0x00, 0x00, 0x00, 0x00, 0x00, 0x00, 0x00, 0x00, 0x02, 0x04, 0xfe, 0x07,
   0xfe, 0x07, 0x02, 0x04, 0x00, 0x00, 0x00, 0x00, 0x00, 0x00, 0x00, 0x00};
