/* XPM */
static char * arc_xpm[] = {
"24 24 4 1",
" 	s mask c none",
".	c #FFFF00000000",
"X	c #AEBAB6DAFFFF",
"o	c #00000000FFFF",
"                        ",
" ........      ........ ",
" .XXXXXX.      .XXXXXX. ",
" .Xooooo.      .Xooooo. ",
" .Xooooo.      .Xooooo. ",
" .Xooooo.      .Xooooo. ",
" .Xooooo.      .Xooooo. ",
" .Xooooo.      .Xooooo. ",
" ........      ........ ",
"                        ",
"                        ",
"                        ",
"                        ",
"                        ",
" ........      ........ ",
" .XXXXXX.      .XXXXXX. ",
" .Xooooo.      .Xooooo. ",
" .Xooooo.      .Xooooo. ",
" .Xooooo.      .Xooooo. ",
" .Xooooo.      .Xooooo. ",
" .Xooooo.      .Xooooo. ",
" .Xooooo.      .Xooooo. ",
" ........      ........ ",
"                        "};
