/* XPM */
static char *bill_cat_xpm[] = {
/* width height ncolors chars_per_pixel */
"64 64 5 1",
/* colors */
"` c black",
"a c violet",
"b c grey",
"c c tomato",
"d c white",
/* pixels */
"````````````````````````````````````````````````````````````````",
"````````````````````````````````````````````````````````````````",
"````````````````````````````````````````````````````````````````",
"````````````````````````````````````````````````````````````````",
"````````````````````````````````````````````````````````````````",
"````````````````````````````````````````````````````````````````",
"```````````````````````````````````````````````````ccccccccc````",
"``````````````````````````````````````````````ccccccccccccccccc`",
"```ccccccc```````````````````ccccccccccccccccccccccccccccc```cc`",
"`````cccc`ccccc```````````ccc`dddddd`cccccccccccccccccccc`````c`",
"`````````cc``ccccc````ccccc`ddddddddddcccccccccccccc````````````",
"``````````cc````cccc`dddd``d`ddddddddd`ccccccccccc``````````````",
"````````````cc`cccc`dddddd`d``dddddddd`ccccccccc````````````````",
"``````````````cccccd``ddddddddddddddddcccccccc``````````````````",
"`````````````ccccccd`dddd``````dddddd`cccccccc``````````````````",
"``````````````ccccc`dddd``b`b```d```````ccccc```````````````````",
"```````````````c``ddddddd``````ddddddddddd``c```````````````````",
"```````````````dddddddddddd``dddddddddddddddd```````````````````",
"`````````````dddddddddddddd`dddddddddddddddddd``````````````````",
"````````````dddddddddddddd`dddddddddddddddddddd`````````````````",
"```````````dddddddddddddd`ddddddddddddddddddddd`````````````````",
"```````````dddddddddddddd`dddddddddddddddddddddd````````````````",
"```````````ddddddddddddddddddddddddddddddddddddd````````````````",
"```````````ddddddddddddddddddddddddddddddddddddd````````````````",
"````````````ddddddddddddd`d`dddddddddddddddddddd````````````````",
"`````````````d`ddddddddddd`dd`d`ddddddddddd`dd``````````````````",
"``````````````d`````d``d``d`dddddd`dddd`````````````````````````",
"`````````````````ddd``dd``dd`c`ddddddd`dd```````````````````````",
"``````````````````````````cccc```````````c``````````````````````",
"`````````````````````````ccccc`````````ccc``````````````````````",
"``````````````````````````cccc`````````cc```````````````````````",
"```````````````````````````ccc`````````cc```````````````````````",
"```````````````````````````ccc`````````cc```````````````````````",
"````````````````````````````cc`````````cc```````````````````````",
"````````````````````````````cc`````````cc```````````````````````",
"````````````````````````````cc`````````cc```````````````````````",
"````````````````````````````cc`````````cc```````````````````````",
"`````````````````````````````c`````````cc```````````````````````",
"`````````````````````````````c`````````cc```````````````````````",
"`````````````````````````````c`````````cc```````````````````````",
"`````````````````````````````c`aa```aa`cc```````````````````````",
"`````````````````````````````aaaa`aaaaacc```````````````````````",
"```````````````````````````aaaaaaaaaaa`cc```````````````````````",
"``````````````````````````aaaaaaaaaaacccc```````````````````````",
"``````````````````````````aaaaa`aaaa`cccc```````````````````````",
"`````````````````````````aaaaa`aaaaa`cccc```````````````````````",
"````````````````````````aaaaaa`aaaaaccccc```````````````````````",
"````````````````````````aaaaaaaaaaaacccccc``````````````````````",
"````````````````````````aaaaaaaaaaaacccccc``````````````````````",
"````````````````````````aaaaaaaaaaaacccccc``````````````````````",
"````````````````````````aaaaaaaaaaaaccccccc`````````````````````",
"````````````````````````aaaaaaaaaaaaccccccc`````````````````````",
"````````````````````````aaaaaaaaaaa`ccccccccc```````````````````",
"``````````````````````````aaaaaaaa`cccccccccc```````````````````",
"`````````````````````````````````cccccccccc`````````````````````",
"```````````````````````````ccccccccccccccc``````````````````````",
"```````````````````````````ccccccccccccc````````````````````````",
"```````````````````````````cccccccccccc`````````````````````````",
"``````````````````````````ccccccccccc```````````````````````````",
"``````````````````````````ccccccccccccccccc`````````````````````",
"``````````````````````````cccccccccccccccccccccccc``````````````",
"````````````````````````````````````````````````````````````````",
"````````````````````````````````````````````````````````````````",
"````````````````````````````````````````````````````````````````"
};
