/* XPM */
static char *fig_xpm[] = {
/* width height ncolors chars_per_pixel */
"48 48 7 1",
/* colors */
"d s mask c none",
"` c black",
"a c lime green",
"b c peru",
"c c green",
"e c sienna",
"f c sea green",
/* pixels */
"dddddddddddddddddddddddddddddddddddddddddddddddd",
"dddddddddddddddddddddddddddddddddddddddddddddddd",
"dddddddddddddddddddddddddddddddddddddddddddddddd",
"dddddddddddddddddddddddddddddddddddddddddddddddd",
"ddddddddddddddddddddddddddddddddddddddddddddd``d",
"ddddddd```````dd```ddd````ddddddddddddddddd``c``",
"dddddddd`dddd`ddd`ddd`ddd`dddddddddddddddd`ccccc",
"dddddddd````ddddd`ddd`dddddddddddddddddd``cccccc",
"dddddddd`dd`ddddd`ddd`dd```ddddddddddddd`ccccccc",
"dddddddd`dddddddd`ddd`ddd`dddddddddddd``cccccccc",
"dddddddd`dddddddd`ddd`dd``dddddddddddd`ccccccccc",
"ddddddd```dddddd```ddd``d`ddddddddddd`cccccccccc",
"ddddddddddddddddddddddddddddddddddddd`cccccccccc",
"dddddddddddddddddddddddddddddddddddd`ccccccccccc",
"ddddddb```dddddddddddddddddddddddddd`ccccccc`ccc",
"dddddbbbbb````ddddddddddddddddddd```ecccccc`cccc",
"dddddeeebbbbbb````dddddd`````````bbb`cccccc`cccc",
"dddde``eeeeebbbbbb``````bbbbbbbbbbec`ccccc`ccccc",
"ddddddd````eeeeebbbbbbbbbbeeeee``ecccccc``cccccc",
"ddddddddddd````eeeee```eeee``````cccc`ccccccccc`",
"ddddddddddddddd``````d````````cfcccc`c`ccc````cc",
"dddddddddddddddddd``f`ddd`fffffcccccc`ccc`cccccc",
"dddddddddddddddddd`af`ddd`ffffccc``ccc`ccc`ccccc",
"ddddddddddddddddd`aaf`ddd`ffcccc`ccccc`cccc`cccc",
"dddddddddddddddd`aaaaddd`fffcc``cccccc`ccccc`ccc",
"ddddddddddddddd`faaa`ddd`fcccccccccccc`ccccccccc",
"ddddddddddddddd`aaa`ddd`ffcfcccccccccc`cccccc``c",
"dddddddddddddd`faaa`dd`fffccfc`````ccccccccccc`c",
"ddddddddddddd`faaaa`dd``fcccc`ddd```cc`cccccccc`",
"dddddddddddd`ffaaaa`ddd``````ddd`ccccc`ccccccccc",
"ddddddddddd`fffaaaaa`dddddddddd`ccccc`cccccccccc",
"dddddddddd`fffaaaaaa`dddddddd``cccccc`cccccccccc",
"dddddddddd`fffaaaaaaa`dddddd`cccccccc`cccccccccc",
"ddddddddd`ffffaaaaaaa`dddddd`ccccccc`ccccccccccc",
"dddddddd`ffffaaaaaaaaa`ddddd`cccccc`ccc```cccccc",
"ddddddd`fffffaaaaaaaaaa`ddd`cccccccccc`ddd`ccccc",
"dddddd`ffff``aaaaaaaaaa`dd``cccccccccc`dd`cccccc",
"dddddd`fff``a`aaaaaaaaa`dd`ccccccccccc`dd`cccccc",
"ddddd`ff``ffa`aaaaaaaaa`dd`ccccccccccc`d`ccccccc",
"ddddd`ffff`aaa`aaaaaaaaa`d`cccccccccc`dd`ccccccc",
"dddd`ffff`aaaaaaaaaaaaaa`d`ccccccccc`ddd`ccccccc",
"dddd`ff````aaaaaaaaaaaaa`d`ccccccc``dddd`ccccccc",
"ddd`ff`ff`a`aaaaaaaaaaaa`dd```````dddddd`ccccccc",
"ddd`ffffffaa``aaaaaaaaaa`ddddddddddddddd`ccccccc",
"dd`ffffff`aaaa`aaaaaaaaaf`dddddddddddddd`ccccccc",
"ddffffffffaaaaa`aaaaaaaaa`ddddddddddddddfccccccc",
"ddffffffff`aaaaaaaaaaaaaaadddddddddddddd`ccccccc",
"dddddddddddddddddddddddddddddddddddddddddddddddd"
};
