/* XPM */
static char * file_server_xpm[] = {
"32 32 10 1",
" 	s mask c none",
".	c #00000000FFFF",
"X	c #000000008207",
"o	c #2CB24D344D34",
"O	c #BEFBBEFBBEFB",
"+	c #71C682079248",
"@	c #000000000000",
"#	c #FFFFFBEECF3C",
"$	c #A28951442CB2",
"%	c #FFFFA6990000",
"       .   .   .   .   .        ",
"      ..X ..X ..X ..X ..X       ",
"     o...XX..XX..XX..XX..X      ",
"    oOO...XX..XX..XX..XX..X     ",
"   oOXOO...XX..XX..XX..XX..X    ",
"  oOOOXO.. .XXO.XXO.XXO.XXO.X   ",
" ..OOOO..   .X+O.X+O.X+O.X+O.X  ",
"....OO..     .X+O.X+O.X+O.X+O.X ",
" X.....      X+OOX+OOX+OOX+OOX  ",
"  X...      X+OOX+OOX+OOX+OOX   ",
"   X.      X+OOX+OOX+OOX+OOX    ",
"    X.    X+OOX+OOX+OOX+OOX     ",
"     X.  XXOOXXOOXXOOXXOOX      ",
"      X.X @.X @.X @.X @.X       ",
"       X   X   X   X   X        ",
"@@@@@@@@@@@@@@@@@@@@@@@@@@@@@@@@",
" +###OOOOOOOO++++oooooooo@@@@@@ ",
"  @@@@@@@@@@@@@@@@@@@@@@@@@@@@  ",
"       $%%$%$%$      $%$        ",
"        $%$%$%$      $%$        ",
"        $%$%$%%$     $%$        ",
"         $$%%$%%%$ $$$%$        ",
"          $%%%$%%%$$%$$%$       ",
"           $$%%$%%%%$%$%$       ",
"            $$%%%%%%%$%%$       ",
"              $$%%%%%%$%$       ",
"                $$%%%%%%$       ",
"                  $%%%%$        ",
"                  $%%%%$        ",
"                 o@@@@@@@       ",
"                 o@@@@@@@       ",
"                 o@@@@@@@       "};
