/* XPM */
static char *handtoface_xpm[] = {
/* width height ncolors chars_per_pixel */
"48 48 9 1",
/* colors */
"` c black",
"a c tan",
"b c wheat",
"c c peru",
"d c grey",
"e c sienna",
"f c dark slate grey",
"g c white",
"h c slate grey",
/* pixels */
"ffcccccfeeeeefeee`feeeeeeffeffeefeeeefeefffeeeee",
"ccccccccfeeeeeeeeffefeeefeeffefffffeffeeeeeeefee",
"efccceeeeefeefeeee`fefeeeffefffcfffefeffeeefeeee",
"cccccceeeefaaceeeeeaacfeeefeccffcffcffcffffffeef",
"fccceeeeeeeaeaefeeeaeaefeeefffcffcffffffcfffffff",
"ccccceceeeeeaaaa`feeaaaeeeeeecefceffccffefffcfff",
"ccccfeaaefffaaaac`ffeaaaeeeeccccfccfffefffffffff",
"ccceeeeaae``faaaaa`feaabceeeeeeecfccfeccfcffffcf",
"ccccefaeaaaf`ebaabeffabaaeececccecccccffcffcffef",
"cccefffaeabaf`ebabbefebabafeeccecefcfcffcfffcffc",
"ccceef`faaaaba`ababbefabbbeeceeceecccccccccecfcf",
"cceeef``faaaaba`ababafebaabeeceeefecffcffcfffcff",
"cceeaaf``eabaabcfabbaafebbbaeeaecceeccccccccccfc",
"ccfeaaaef`eaaabbaecagaaabbbbaeecececcefcccfccfcc",
"cfefeeaaafffababbaeaaaabbbabbaeeeeeecccfcfccfcfc",
"cce``aaeaaaffabbbbbbabbaabbbbaaeeceeeccfcccccccc",
"eff```aaaaaae`eabbbabaaabbaabbaaeeceefefcffcccff",
"ff`````aaaaaaafebabaabbbbabbbbbaaeeeeeecececcccc",
"ce```f`feaaaabaeabababaababbaabaaceeeeeeffffffcc",
"ee````fefeaaaabaaaabaaaaabbaabbbaaeeeefeefefcfcf",
"eff`f`eeeefaaaaaaabbabbbbbbaaabbaaafeefeeeeeegdb",
"eef`f`eeeeefeaaaaaaaaaaabbbabaabaaaefffdgdbhhdgg",
"eeeff`eeeeee`eaaababbbbbbbbbbaaaaaaef``edggggggg",
"eeeffffeeeeefffbaabbbbbbbaaabbbaaaaaehe`ehgggggg",
"fffefffeeeeeefffbaaabbbbbabbbaaaaaaeefdcdhdggggg",
"`f`eeeeeeeeeeeefebaababbababbaaaaaeeeefgdggggggg",
"`e`eeeefefeeeeeefaaaaabaabbabbaacaeeaafhheddgggg",
"`ceeeeefeeeeeeeefeaabaaaaabbbaaaaeeaeaefgehddggg",
"`eeeeeeeeeefeefeffacaaaaabbabaaeeeaeeaaeedhhhgdg",
"`ccfeefeeeeeefeeffaaaaaaaaaaaaeeaaeaaeaebghbeegd",
"`ceeefeeeeeeeffef`aaaaaaaaahaeeeeeahaheagdhdg`fg",
"fcfeeeeeeeeaefe`faaabaeaeaaaeeeeeeeahaegdddhgg`e",
"`ceeefefeeeeae`ebaaaaaaaaaef```eeeeeecggdgdhhgf`",
"feefefeeeeeeeeeaaaaaaaeff````ge``feeagddddghhdh`",
"fcefffefeeeeeaaaaaaaee```````egehabgdhddbgdhdgh`",
"eeeefeeeefeeeaeaaaaf```````````dhhhddddddddddgh`",
"fceeefeeff`faaaaae``````````````fhehhhdddddgdde`",
"eeeeffehefffaaaef````````````````hdhdhhddddddd``",
"efff`eeheeefeef````````````````````ffhhhhdhhdf``",
"ff```fdaheee```ef`ffe``````````````dehhhhhhhg```",
"``````eghheeeffeffeh```````````````hhhhhhhhgf```",
"``````hdddhhefeefhheff``````````````dhdhhdd`````",
"`````cddddhhheeffffed`````````````````fhef``````",
"`````hhhhhdeehffffhgf```````````````````````````",
"`````hhhdddggheagggd````````````````````````````",
"`````ehhddggdfhehdd`````````````````````````````",
"`````hhdgdgge`deeg`````````````````````````````d",
"`````hddgdgggehehf````````````````````````````dg"
};
