#define test_width 64
#define test_height 16
static char test_bits[] = {
   0x00, 0x00, 0x00, 0x00, 0x00, 0x00, 0x00, 0x00, 0xfe, 0xff, 0xff, 0xff,
   0xff, 0xff, 0xff, 0x7f, 0x02, 0x00, 0x00, 0x00, 0x00, 0x00, 0x00, 0x40,
   0xfa, 0xff, 0xff, 0xff, 0xfd, 0xff, 0xff, 0x5f, 0x0a, 0x00, 0x00, 0x00,
   0x05, 0x00, 0x00, 0x50, 0xea, 0xff, 0xff, 0xff, 0xff, 0xff, 0xff, 0x57,
   0x2a, 0x00, 0x00, 0x00, 0x05, 0x00, 0x00, 0x54, 0x2a, 0x00, 0x00, 0x00,
   0x05, 0x00, 0x00, 0x54, 0x2a, 0x00, 0x00, 0x00, 0x05, 0x00, 0x00, 0x54,
   0x2a, 0x00, 0x00, 0x00, 0x05, 0x00, 0x00, 0x54, 0xea, 0xff, 0xff, 0xff,
   0xff, 0xff, 0xff, 0x57, 0x0a, 0x00, 0x00, 0x00, 0x05, 0x00, 0x00, 0x50,
   0xfa, 0xff, 0xff, 0xff, 0xfd, 0xff, 0xff, 0x5f, 0x02, 0x00, 0x00, 0x00,
   0x00, 0x00, 0x00, 0x40, 0xfe, 0xff, 0xff, 0xff, 0xff, 0xff, 0xff, 0x7f,
   0x00, 0x00, 0x00, 0x00, 0x00, 0x00, 0x00, 0x00};
