#define triangle_width 16
#define triangle_height 16
static char triangle_bits[] = {
   0x00, 0x00, 0x80, 0x01, 0xc0, 0x03, 0xc0, 0x03, 0xe0, 0x07, 0x60, 0x06,
   0x30, 0x0e, 0x30, 0x0c, 0x18, 0x1c, 0x18, 0x18, 0x0c, 0x30, 0xfe, 0x7f,
   0xfe, 0x7f, 0x00, 0x00, 0x00, 0x00, 0x00, 0x00};
